<svg width="256" height="256" viewBox="0 0 256 256" fill="none" xmlns="http://www.w3.org/2000/svg">
<rect x="-3.05176e-05" width="256" height="256" rx="60" fill="#5064A8"/>
<path d="M41.5478 84.2914C39.8187 85.0721 38.8932 87.4534 39.0098 89.621L44.7347 185.022C44.7764 185.78 44.9954 186.517 45.374 187.175C45.7526 187.832 46.2801 188.391 46.914 188.806L126.44 241.439C129.825 243.154 133.567 240.412 133.985 240.171L212.773 194.566C214.229 193.723 215.159 192.169 215.2 190.452C215.2 190.452 217.15 92.7762 216.991 91.2091C216.782 87.9434 215.519 86.5413 214.223 85.6995L186.434 69.6469C184.046 68.2862 182.127 69.1769 179.127 71.2692C176.139 73.3542 176.016 77.0997 178.344 78.4443C180.667 79.809 199.421 90.2035 199.421 90.2035L127.473 131.848L53.6135 89.4648L45.6914 85.0932C44.0622 84.2583 42.4555 84.02 41.5551 84.3041L41.5478 84.2914ZM205.158 102.189L203.18 185.388L134.31 225.251L134.117 143.326L205.153 102.209L205.158 102.189ZM119.394 144.331L120.002 222.019L57.1232 180.374L52.5957 104.971L119.394 144.331ZM122.14 14.4288L160.779 35.9185C163.118 37.0194 162.806 39.7909 162.806 39.7909C162.87 39.9907 162.122 83.855 162.122 83.855C162.113 84.4846 161.941 85.1011 161.623 85.6442C161.306 86.1873 160.853 86.6384 160.309 86.9533L125.095 107.336C123.955 107.996 121.63 108.563 119.385 106.747L83.3994 85.0249C82.9424 84.7069 82.5612 84.2915 82.2831 83.8085C82.0049 83.3255 81.8367 82.7869 81.7905 82.2311L80.9974 40.0888L81.1437 40.3427C81.0925 40.2539 81.0193 40.1269 81.0188 40.0086L80.9615 38.9413C80.8558 37.614 81.1993 36.1283 82.466 35.3951L118.567 14.4993C119.107 14.1846 119.719 14.0131 120.344 14.0007C120.97 13.9884 121.588 14.1357 122.14 14.4288ZM117.373 95.3642L116.999 63.9511L89.8532 47.5774L90.4875 79.2967L117.373 95.3642ZM149.125 39.0571L120.565 23.2481L94.2937 38.4543L121.98 54.7693L149.125 39.0571ZM127.058 63.2933L127.329 94.8505L153.043 79.9669L153.658 47.8964L127.058 63.2933Z" fill="white"/>
</svg>
