<svg width="256" height="256" viewBox="0 0 256 256" fill="none" xmlns="http://www.w3.org/2000/svg">
<rect width="256" height="256" rx="50" fill="#C6C9D2"/>
<path fill-rule="evenodd" clip-rule="evenodd" d="M128 229C79.9172 229 55.875 229 40.9376 214.135C26 199.271 26 175.347 26 127.5C26 79.6529 26 55.7294 40.9376 40.8647C55.875 26 79.9172 26 128 26C176.083 26 200.124 26 215.062 40.8647C230 55.7294 230 79.6529 230 127.5C230 175.347 230 199.271 215.062 214.135C200.124 229 176.083 229 128 229ZM151.355 83.0735C157.993 76.4658 157.993 65.755 151.355 59.1499C144.715 52.5423 133.952 52.5423 127.314 59.1499L70.6464 115.538C65.7843 120.377 64.3298 127.652 66.9612 133.973C69.5925 140.294 75.7913 144.418 82.6661 144.418H132.292L104.647 171.927C98.0069 178.534 98.0069 189.245 104.647 195.85C111.285 202.458 122.048 202.458 128.689 195.85L185.355 139.462C190.217 134.623 191.671 127.348 189.039 121.027C186.408 114.706 180.209 110.582 173.334 110.582H123.708L151.355 83.0735Z" fill="#1C274C"/>
</svg>
