<svg width="466" height="128" viewBox="0 0 466 128" fill="none" xmlns="http://www.w3.org/2000/svg">
<path d="M262.45 29.7V102H250.6V55.3C250.6 53.4333 250.7 51.4167 250.9 49.25L229.05 90.3C228.017 92.2667 226.433 93.25 224.3 93.25H222.4C220.267 93.25 218.683 92.2667 217.65 90.3L195.55 49.1C195.65 50.2 195.733 51.2833 195.8 52.35C195.867 53.4167 195.9 54.4 195.9 55.3V102H184.05V29.7H194.2C194.8 29.7 195.317 29.7167 195.75 29.75C196.183 29.7833 196.567 29.8667 196.9 30C197.267 30.1333 197.583 30.35 197.85 30.65C198.15 30.95 198.433 31.35 198.7 31.85L220.35 72C220.917 73.0667 221.433 74.1667 221.9 75.3C222.4 76.4333 222.883 77.6 223.35 78.8C223.817 77.5667 224.3 76.3833 224.8 75.25C225.3 74.0833 225.833 72.9667 226.4 71.9L247.75 31.85C248.017 31.35 248.3 30.95 248.6 30.65C248.9 30.35 249.217 30.1333 249.55 30C249.917 29.8667 250.317 29.7833 250.75 29.75C251.183 29.7167 251.7 29.7 252.3 29.7H262.45ZM297.769 49.9C301.569 49.9 305.019 50.5167 308.119 51.75C311.252 52.9833 313.919 54.7333 316.119 57C318.352 59.2667 320.069 62.0333 321.269 65.3C322.469 68.5667 323.069 72.2167 323.069 76.25C323.069 80.3167 322.469 83.9833 321.269 87.25C320.069 90.5167 318.352 93.3 316.119 95.6C313.919 97.9 311.252 99.6667 308.119 100.9C305.019 102.133 301.569 102.75 297.769 102.75C293.935 102.75 290.452 102.133 287.319 100.9C284.185 99.6667 281.502 97.9 279.269 95.6C277.069 93.3 275.352 90.5167 274.119 87.25C272.919 83.9833 272.319 80.3167 272.319 76.25C272.319 72.2167 272.919 68.5667 274.119 65.3C275.352 62.0333 277.069 59.2667 279.269 57C281.502 54.7333 284.185 52.9833 287.319 51.75C290.452 50.5167 293.935 49.9 297.769 49.9ZM297.769 93.25C302.035 93.25 305.185 91.8167 307.219 88.95C309.285 86.0833 310.319 81.8833 310.319 76.35C310.319 70.8167 309.285 66.6 307.219 63.7C305.185 60.8 302.035 59.35 297.769 59.35C293.435 59.35 290.219 60.8167 288.119 63.75C286.052 66.65 285.019 70.85 285.019 76.35C285.019 81.85 286.052 86.05 288.119 88.95C290.219 91.8167 293.435 93.25 297.769 93.25ZM369.241 61.55C368.874 62.0167 368.507 62.3833 368.141 62.65C367.807 62.9167 367.307 63.05 366.641 63.05C366.007 63.05 365.391 62.8667 364.791 62.5C364.191 62.1 363.474 61.6667 362.641 61.2C361.807 60.7 360.807 60.2667 359.641 59.9C358.507 59.5 357.091 59.3 355.391 59.3C353.224 59.3 351.324 59.7 349.691 60.5C348.057 61.2667 346.691 62.3833 345.591 63.85C344.524 65.3167 343.724 67.1 343.191 69.2C342.657 71.2667 342.391 73.6167 342.391 76.25C342.391 78.9833 342.674 81.4167 343.241 83.55C343.841 85.6833 344.691 87.4833 345.791 88.95C346.891 90.3833 348.224 91.4833 349.791 92.25C351.357 92.9833 353.124 93.35 355.091 93.35C357.057 93.35 358.641 93.1167 359.841 92.65C361.074 92.15 362.107 91.6167 362.941 91.05C363.774 90.45 364.491 89.9167 365.091 89.45C365.724 88.95 366.424 88.7 367.191 88.7C368.191 88.7 368.941 89.0833 369.441 89.85L372.991 94.35C371.624 95.95 370.141 97.3 368.541 98.4C366.941 99.4667 365.274 100.333 363.541 101C361.841 101.633 360.074 102.083 358.241 102.35C356.441 102.617 354.641 102.75 352.841 102.75C349.674 102.75 346.691 102.167 343.891 101C341.091 99.8 338.641 98.0667 336.541 95.8C334.441 93.5333 332.774 90.7667 331.541 87.5C330.341 84.2 329.741 80.45 329.741 76.25C329.741 72.4833 330.274 69 331.341 65.8C332.441 62.5667 334.041 59.7833 336.141 57.45C338.241 55.0833 340.841 53.2333 343.941 51.9C347.041 50.5667 350.607 49.9 354.641 49.9C358.474 49.9 361.824 50.5167 364.691 51.75C367.591 52.9833 370.191 54.75 372.491 57.05L369.241 61.55ZM393.083 27.7V70.25H395.383C396.216 70.25 396.866 70.15 397.333 69.95C397.833 69.7167 398.333 69.2667 398.833 68.6L411.583 52.85C412.116 52.15 412.699 51.6167 413.333 51.25C413.999 50.8833 414.849 50.7 415.883 50.7H427.183L411.233 69.75C410.099 71.25 408.866 72.4 407.533 73.2C408.233 73.7 408.849 74.2833 409.383 74.95C409.949 75.6167 410.483 76.3333 410.983 77.1L428.083 102H416.933C415.966 102 415.133 101.85 414.433 101.55C413.733 101.217 413.149 100.633 412.683 99.8L399.583 80.35C399.116 79.5833 398.633 79.0833 398.133 78.85C397.633 78.6167 396.883 78.5 395.883 78.5H393.083V102H380.733V27.7H393.083ZM445.801 59.6C447.401 56.5333 449.301 54.1333 451.501 52.4C453.701 50.6333 456.301 49.75 459.301 49.75C461.667 49.75 463.567 50.2667 465.001 51.3L464.201 60.55C464.034 61.15 463.784 61.5833 463.451 61.85C463.151 62.0833 462.734 62.2 462.201 62.2C461.701 62.2 460.951 62.1167 459.951 61.95C458.984 61.7833 458.034 61.7 457.101 61.7C455.734 61.7 454.517 61.9 453.451 62.3C452.384 62.7 451.417 63.2833 450.551 64.05C449.717 64.7833 448.967 65.6833 448.301 66.75C447.667 67.8167 447.067 69.0333 446.501 70.4V102H434.151V50.7H441.401C442.667 50.7 443.551 50.9333 444.051 51.4C444.551 51.8333 444.884 52.6333 445.051 53.8L445.801 59.6Z" fill="#5064A8"/>
<rect x="141" width="2" height="127" fill="#5064A8"/>
<path d="M2.05029 39.63C1.07922 40.0674 0.55942 41.4013 0.62494 42.6155L3.84003 96.0571C3.86347 96.4817 3.98646 96.8948 4.19908 97.2631C4.4117 97.6313 4.70797 97.9444 5.06396 98.177L49.7258 127.661C51.6272 128.621 53.7284 127.086 53.9632 126.95L98.2109 101.404C99.029 100.931 99.5509 100.061 99.5741 99.099C99.5741 99.099 100.669 44.3831 100.58 43.5052C100.463 41.6758 99.753 40.8904 99.0255 40.4188L83.4192 31.4265C82.078 30.6643 81.0002 31.1632 79.3152 32.3353C77.6372 33.5032 77.5681 35.6014 78.8756 36.3546C80.1801 37.1191 90.7126 42.9419 90.7126 42.9419L50.3063 66.2705L8.82643 42.5281L4.37734 40.0792C3.46235 39.6115 2.56006 39.478 2.05439 39.6371L2.05029 39.63ZM93.9346 49.6561L92.8237 96.262L54.1461 118.593L54.0375 72.7002L93.9316 49.6674L93.9346 49.6561ZM45.7688 73.2628L46.1103 116.782L10.7975 93.4535L8.25481 51.2144L45.7688 73.2628ZM47.3114 0.494533L69.0108 12.5326C70.3248 13.1493 70.1494 14.7018 70.1494 14.7018C70.1855 14.8137 69.7651 39.3856 69.7651 39.3856C69.7602 39.7383 69.6637 40.0836 69.4852 40.3879C69.3068 40.6921 69.0523 40.9448 68.7469 41.1212L48.9705 52.539C48.3303 52.9087 47.0245 53.2262 45.7637 52.2089L25.5543 40.0409C25.2977 39.8628 25.0836 39.6301 24.9274 39.3595C24.7711 39.089 24.6767 38.7872 24.6507 38.4759L24.2053 14.8687L24.2875 15.011C24.2587 14.9612 24.2176 14.89 24.2174 14.8238L24.1851 14.2259C24.1258 13.4824 24.3187 12.6501 25.0301 12.2394L45.3044 0.534036C45.6081 0.357753 45.9517 0.261637 46.3028 0.254727C46.6539 0.247816 47.001 0.330337 47.3114 0.494533ZM44.6339 45.8328L44.4241 28.2358L29.1788 19.0636L29.535 36.8321L44.6339 45.8328ZM62.4663 14.2908L46.4266 5.43488L31.6726 13.9531L47.2215 23.0924L62.4663 14.2908ZM50.0731 27.8673L50.2252 45.545L64.6662 37.2075L65.0121 19.2423L50.0731 27.8673Z" fill="#5064A8"/>
</svg>
