<svg width="575" height="169" viewBox="0 0 575 169" fill="none" xmlns="http://www.w3.org/2000/svg">
<path d="M537.36 124.577V52.945H549.394V62.4004C551.209 61.1588 553.453 59.8217 556.127 58.389C558.897 56.8609 561.906 55.4282 565.153 54.0911C568.4 52.754 571.648 51.8466 574.895 51.3691V63.5465C571.743 64.2151 568.544 65.0747 565.296 66.1253C562.049 67.1759 559.04 68.322 556.271 69.5636C553.501 70.8052 551.209 71.9036 549.394 72.8587V124.577H537.36Z" fill="#1C274C"/>
<path d="M467.826 124.577V22H479.861V81.8843L490.605 81.5978L509.946 52.945H523.699L501.35 86.039L524.846 124.577H511.092L490.892 92.1993L479.861 92.7724V124.577H467.826Z" fill="#1C274C"/>
<path d="M431.799 126.01C424.158 126.01 418.141 124.768 413.748 122.285C409.45 119.706 406.394 115.599 404.579 109.964C402.86 104.329 402 96.8793 402 87.6149C402 78.9235 403.003 71.9036 405.009 66.5551C407.014 61.2065 410.214 57.3862 414.607 55.0939C419.096 52.7062 424.875 51.5123 431.942 51.5123C433.661 51.5123 435.715 51.6556 438.103 51.9421C440.49 52.1331 442.926 52.4197 445.409 52.8017C447.988 53.0882 450.185 53.3748 451.999 53.6613L451.569 63.6898C449.85 63.4988 447.94 63.3077 445.839 63.1167C443.738 62.9257 441.636 62.7824 439.535 62.6869C437.53 62.4959 435.858 62.4004 434.521 62.4004C429.268 62.4004 425.161 63.26 422.2 64.9792C419.335 66.6028 417.329 69.2293 416.183 72.8587C415.037 76.488 414.464 81.4067 414.464 87.6149C414.464 94.396 414.942 99.7923 415.897 103.804C416.947 107.815 418.905 110.728 421.771 112.543C424.636 114.262 428.886 115.122 434.521 115.122C435.858 115.122 437.577 115.074 439.679 114.978C441.78 114.787 443.881 114.596 445.982 114.405C448.179 114.214 450.137 114.071 451.856 113.975L452.142 123.861C450.232 124.243 447.988 124.577 445.409 124.863C442.926 125.15 440.443 125.389 437.959 125.58C435.572 125.866 433.518 126.01 431.799 126.01Z" fill="#1C274C"/>
<path d="M356.836 126.01C348.813 126.01 342.51 124.625 337.925 121.855C333.436 119.085 330.284 114.931 328.47 109.391C326.655 103.756 325.748 96.5927 325.748 87.9014C325.748 79.6876 326.751 72.9064 328.756 67.5579C330.762 62.1139 334.057 58.1025 338.642 55.5237C343.226 52.8495 349.291 51.5123 356.836 51.5123C364.477 51.5123 370.589 52.8495 375.174 55.5237C379.758 58.1025 383.053 62.1139 385.059 67.5579C387.065 72.9064 388.068 79.6876 388.068 87.9014C388.068 96.5927 387.113 103.756 385.202 109.391C383.388 114.931 380.236 119.085 375.747 121.855C371.258 124.625 364.954 126.01 356.836 126.01ZM356.836 115.551C362.185 115.551 366.196 114.644 368.87 112.829C371.545 110.919 373.311 107.911 374.171 103.804C375.031 99.6968 375.46 94.396 375.46 87.9014C375.46 81.5023 374.887 76.3925 373.741 72.5721C372.691 68.7518 370.828 66.0298 368.154 64.4061C365.48 62.7824 361.707 61.9706 356.836 61.9706C352.061 61.9706 348.288 62.7824 345.518 64.4061C342.844 66.0298 340.934 68.7518 339.788 72.5721C338.737 76.3925 338.212 81.5023 338.212 87.9014C338.212 94.396 338.642 99.6968 339.501 103.804C340.361 107.911 342.128 110.919 344.802 112.829C347.476 114.644 351.488 115.551 356.836 115.551Z" fill="#1C274C"/>
<path d="M209 124.577V52.945H221.034V57.816C222.562 56.8609 224.473 55.9058 226.765 54.9507C229.057 53.9956 231.492 53.1837 234.071 52.5152C236.65 51.8466 239.133 51.5123 241.521 51.5123C246.296 51.5123 250.117 52.0854 252.982 53.2315C255.847 54.3776 258.187 56.1923 260.002 58.6755C261.912 57.6249 264.252 56.5743 267.022 55.5237C269.792 54.3776 272.752 53.4225 275.904 52.6584C279.056 51.8944 282.16 51.5123 285.216 51.5123C290.087 51.5123 294.099 52.1331 297.251 53.3748C300.498 54.6164 302.981 56.6221 304.7 59.3919C306.515 62.1616 307.804 65.791 308.568 70.2799C309.333 74.7689 309.715 80.2606 309.715 86.7553V124.577H297.537V87.3283C297.537 81.3112 297.155 76.488 296.391 72.8587C295.722 69.1338 294.385 66.4595 292.38 64.8359C290.374 63.2122 287.318 62.4004 283.211 62.4004C280.823 62.4004 278.388 62.6869 275.904 63.26C273.517 63.7375 271.272 64.3583 269.171 65.1224C267.07 65.8865 265.398 66.6028 264.157 67.2714C264.73 69.7546 265.112 72.8109 265.303 76.4403C265.589 79.9741 265.733 83.6512 265.733 87.4716V124.577H253.698V87.9014C253.698 81.5978 253.364 76.5835 252.696 72.8587C252.027 69.1338 250.642 66.4595 248.541 64.8359C246.535 63.2122 243.431 62.4004 239.229 62.4004C236.936 62.4004 234.596 62.6869 232.209 63.26C229.917 63.7375 227.815 64.3583 225.905 65.1224C223.995 65.8865 222.371 66.6028 221.034 67.2714V124.577H209Z" fill="#1C274C"/>
<path d="M45.7708 126.12L45.7708 126.75H44.2619C27.5948 126.75 14.0833 113.398 14.0833 96.9264C14.0833 80.4552 27.5948 67.1029 44.2619 67.1029C46.2626 67.1029 48.2178 67.2953 50.1096 67.6624C48.4964 63.3595 47.6151 58.7054 47.6151 53.848C47.6151 31.8865 65.6303 14.0833 87.8533 14.0833C108.554 14.0833 125.603 29.5307 127.842 49.3971C143.601 54.7858 154.917 69.5796 154.917 86.985C154.917 106.047 141.345 121.976 123.229 125.85C123.23 119.86 123.221 114.369 122.619 109.889C121.946 104.883 120.363 99.5917 116.011 95.2392C111.658 90.8875 106.367 89.3038 101.361 88.6306C96.8145 88.0194 91.2255 88.0201 85.1302 88.0208H84.5H83.8698C77.7745 88.0201 72.1855 88.0194 67.6393 88.6306C62.633 89.3038 57.3415 90.8875 52.9895 95.2392C48.6374 99.5917 47.0538 104.883 46.3807 109.889C45.7694 114.436 45.7701 120.024 45.7708 126.12Z" fill="#C6C9D2"/>
<path fill-rule="evenodd" clip-rule="evenodd" d="M84.5 154.917C71.2222 154.917 64.5831 154.917 60.4583 150.792C56.3333 146.667 56.3333 140.028 56.3333 126.75C56.3333 113.472 56.3333 106.833 60.4583 102.708C64.5831 98.5833 71.2222 98.5833 84.5 98.5833C97.7778 98.5833 104.417 98.5833 108.542 102.708C112.667 106.833 112.667 113.472 112.667 126.75C112.667 140.028 112.667 146.667 108.542 150.792C104.417 154.917 97.7778 154.917 84.5 154.917ZM90.9495 114.421C92.7824 112.588 92.7824 109.615 90.9495 107.783C89.1158 105.949 86.1435 105.949 84.3106 107.783L68.6622 123.431C67.3195 124.773 66.9179 126.792 67.6445 128.546C68.3711 130.3 70.0829 131.445 71.9813 131.445H85.6851L78.0512 139.079C76.2176 140.912 76.2176 143.884 78.0512 145.717C79.8842 147.551 82.8565 147.551 84.6901 145.717L100.338 130.069C101.681 128.727 102.082 126.708 101.356 124.954C100.629 123.2 98.9171 122.055 97.0187 122.055H83.3149L90.9495 114.421Z" fill="#1C274C"/>
</svg>
